<?xml version="1.0" encoding="utf-8"?>
<!-- Svg Vector Icons : http://www.onlinewebfonts.com/icon -->
<!DOCTYPE svg PUBLIC "-//W3C//DTD SVG 1.1//EN" "http://www.w3.org/Graphics/SVG/1.1/DTD/svg11.dtd">
<svg version="1.1" xmlns="http://www.w3.org/2000/svg" xmlns:xlink="http://www.w3.org/1999/xlink" x="0px" y="0px" viewBox="0 0 1000 1000" enable-background="new 0 0 1000 1000" xml:space="preserve">
<metadata> Svg Vector Icons : http://www.onlinewebfonts.com/icon </metadata>
<g><g transform="translate(0.000000,511.000000) scale(0.100000,-0.100000)"><path d="M3764.5,4942.5c-577-96.2-964.2-513.7-1154-1250.2l-53.1-210l-156.9,162c-349.2,361.9-728.8,387.2-1202.1,81c-323.9-207.5-728.8-693.4-895.9-1070.5c-60.7-134.1-60.7-144.3-15.2-111.3c25.3,20.2,187.3,131.6,359.4,248c258.1,177.1,306.2,202.5,291,151.8c-10.1-32.9-22.8-121.5-32.9-194.9l-15.2-134.1l162,162c346.7,344.2,797.2,574.5,1121.1,574.5c210.1,0,217.6-38,22.8-86c-367-93.6-718.7-318.9-852.8-556.8c-83.5-141.7-184.8-478.3-230.3-756.7c-40.5-250.6-50.6-726.3-17.7-726.3c12.7,0,35.4,48.1,53.1,108.8c43,139.2,169.6,435.3,215.1,501.1c35.4,50.6,38,48.1,88.6-65.8c53.1-121.5,88.6-131.6,113.9-30.4c7.6,32.9,30.4,101.2,53.1,151.8c38,93.6,38,93.6,88.6,43c60.7-60.7,101.2-65.8,101.2-12.7c0,20.2,30.4,111.4,65.8,205l68.3,167l53.1-65.8c96.2-116.4,124-96.2,129.1,91.1c2.5,134.1,22.8,205,83.5,329c75.9,154.4,316.3,475.8,356.8,475.8c10.1,0,35.4-53.1,58.2-118.9c22.8-68.3,151.8-440.4,286-830.1c273.3-799.7,430.2-1303.3,632.7-2044.8C3762-675.7,4159.3-2513,4126.4-2568.7c-7.6-10.1-119-27.8-248-38c-739-50.6-1796.8-288.5-2297.9-513.7l-139.2-63.3l227.8-113.9c298.6-146.8,341.6-141.7,797.2,88.6c205,103.8,397.3,184.7,468.2,197.4c164.5,22.8,374.5-38,655.5-194.9c339.1-187.3,440.3-217.6,589.7-179.7c65.8,17.7,220.2,88.6,341.7,156.9c235.4,134.1,480.8,227.8,597.2,227.8c131.6,0,344.2-78.5,589.7-215.1c131.6-75.9,293.6-151.8,356.8-167.1c151.9-40.5,258.1-10.1,582.1,169.6c134.1,75.9,318.9,156.9,410,179.7c159.4,43,174.6,43,339.1,0c93.7-25.3,278.4-106.3,412.5-182.2c382.2-217.7,539.1-232.8,784.5-83.5l83.5,50.6l-111.4,58.2c-336.6,169.6-1100.9,392.3-1650,483.4c-220.2,35.4-273.3,50.6-273.3,86.1c0,45.5,164.5,875.6,253.1,1265.4c96.2,437.8,253.1,1045.2,392.3,1518.4c124,422.6,635.2,1971.4,660.5,1996.7c27.9,30.4,225.2-207.5,303.7-361.9c65.8-134.1,86.1-205,86.1-308.8c0-151.8,40.5-179.7,108.8-78.5c38,55.7,38,55.7,91.1-58.2c27.8-63.3,53.1-139.2,53.1-169.6c0-68.3,20.2-70.8,93.6-20.2c53.1,38,58.2,35.4,101.2-88.6c25.3-68.3,53.1-126.5,65.8-126.5c10.1,0,38,40.5,58.2,91.1c38,88.6,40.5,91.1,75.9,40.5c40.5-58.2,187.3-417.6,187.3-458.1c0-15.2,12.7-27.8,27.8-27.8c48.1,0,10.1,559.3-50.6,797.2c-86,331.5-146.8,453-291,589.6c-159.4,149.3-291,222.7-546.6,298.6c-217.6,65.8-194.9,101.2,53.1,78.5c260.7-22.8,655.5-242.9,893.4-498.6l124-131.6L9365,1855c-10.1,70.9-25.3,149.3-32.9,172.1c-15.2,35.4-7.6,35.4,63.3-5.1c43-25.3,172.1-113.9,286-194.9c113.9-81,212.6-144.2,217.7-136.7c7.6,5.1-27.9,88.6-78.5,184.7c-205,389.7-549.1,744-875.6,898.4c-131.6,63.3-197.4,81-329,81c-202.5,0-334.1-60.7-511.2-242.9c-68.3-70.9-126.5-124-129.1-118.9c-5.1,5-32.9,98.7-63.3,207.5c-172.1,602.3-498.6,931.3-989.5,1007.2c-311.3,45.5-632.7-17.7-797.2-159.4l-96.2-83.5H6318c194.9-2.5,306.2-12.7,349.2-35.4c58.2-32.9,60.8-38,15.2-63.3c-27.8-15.2-83.5-58.2-124-93.6l-75.9-65.8l118.9-15.2c65.8-10.1,141.7-30.4,169.5-43c50.6-27.8,50.6-27.8-2.5-93.6c-70.9-91.1-65.8-134.1,20.2-134.1c108.8,0,427.7-96.2,622.6-187.3c164.5-75.9,412.5-260.7,387.2-283.4c-5.1-7.6-65.8,12.7-134.1,43c-377.1,164.5-832.6,275.8-1121.1,275.8c-222.7,0-478.3-65.8-711.1-179.7c-174.6-88.6-260.7-151.8-460.6-351.8c-242.9-237.9-298.6-336.6-215.1-369.5c17.7-5,179.7,55.7,361.9,139.2c179.7,81,334.1,144.3,344.2,136.7c12.6-5.1,20.2-60.7,20.2-124c0-136.7,43-146.8,205-35.4l111.4,73.4l7.6-98.7c12.7-167,50.6-169.6,278.4-15.2l199.9,139.2l22.8-131.6c30.4-174.6,93.6-184.8,199.9-35.4c129.1,177.1,410,293.6,713.7,296.1h131.6L7636.5,2017c-167-283.4-554.2-1078.1-754.2-1543.8c-430.2-1009.8-759.2-2062.5-900.9-2887.5c-30.4-179.7-32.9-184.8-96.2-172.1c-35.4,7.6-263.2,20.3-501.1,30.4c-425.2,15.2-437.8,17.7-437.8,70.9c0,101.2-172.1,893.4-278.4,1283.1c-194.9,713.7-475.8,1510.8-822.5,2325.7c-253.1,599.8-804.8,1705.7-997.1,1996.7l-38,60.7L3023,3166c397.3-27.8,683.3-156.9,825-372c106.3-159.4,212.6-116.4,212.6,86c0,48.1,10.1,96.2,25.3,103.8c12.7,7.6,126.5-55.7,250.5-141.7c263.2-182.2,298.6-177.2,311.3,30.4l7.6,124l126.5-88.6c70.9-48.1,154.4-91.1,189.8-93.6c60.7-7.6,63.3,0,70.9,139.2c5.1,78.4,17.7,144.3,30.4,144.3s202.5-81,417.6-182.2c364.4-167,397.3-177.1,435.3-139.2c38,38,38,50.6,5.1,111.4C5865,3016.6,5444.9,3414,5245,3538c-617.5,382.1-1280.5,384.7-2234.6,2.5L2732,3429.1l136.7,126.5c73.4,68.3,202.5,159.4,283.4,202.5c215.1,106.3,574.5,222.7,754.2,240.4c174.6,20.2,187.3,43,91.1,156.9c-35.4,43-63.3,81-63.3,88.6c0,27.8,207.5,93.6,293.6,93.6c81,0,86,5.1,60.7,50.6c-15.2,27.8-70.9,75.9-126.5,106.3c-55.7,32.9-96.2,68.3-93.6,83.5c17.7,50.6,215.1,83.5,496,86l288.5,2.5l-48.1,53.2C4635.1,4907.1,4161.8,5008.3,3764.5,4942.5z"/><path d="M2501.7-3421.5c-372-189.8-377.1-192.3-544.1-182.2c-139.2,7.6-210,30.4-404.9,126.5c-273.3,136.6-417.6,174.6-673.2,179.7c-301.2,5.1-273.3-35.4,101.2-141.7c182.2-53.2,453-151.8,599.8-220.2c392.3-184.7,442.9-182.2,926.2,65.8c372,189.8,377.1,192.3,541.6,182.2c169.6-10.1,253.1-43,670.6-265.7c141.7-75.9,210-96.2,341.6-103.8c154.4-7.6,177.2-2.5,392.3,111.3c501.1,263.2,465.6,250.6,670.6,250.6c205,0,210-2.5,680.8-253.1c151.8-81,217.6-101.2,354.3-108.8c156.9-7.6,179.7-2.5,382.1,106.3c453,245.5,478.3,255.6,683.3,255.6c205,0,205,0,678.2-253.1c146.8-78.4,217.7-101.2,349.2-108.8c162-10.1,164.5-10.1,574.5,197.4c225.2,116.4,432.8,225.2,460.6,245.5c48.1,35.4,45.6,35.4-25.3,25.3c-40.5-7.6-131.6-22.8-202.5-30.4c-70.8-10.1-220.2-65.8-354.3-134.1c-215.1-111.4-240.4-118.9-430.2-118.9h-202.5l-349.2,184.7c-316.3,167-359.4,182.2-496,182.2c-136.7,0-182.2-17.7-526.4-192.4l-374.6-192.3l-177.1,10.1c-159.4,10.1-210,30.4-526.4,192.3c-316.3,164.5-359.4,182.2-496,182.2c-134.1,0-182.2-17.7-523.9-192.4c-374.5-192.3-377.1-192.3-544.1-182.2c-151.8,7.6-210,27.8-528.9,192.3C3035.6-3160.9,3010.3-3160.9,2501.7-3421.5z"/><path d="M2820.5-3758.1c-75.9-25.3-275.8-116.4-440.3-205c-369.5-192.3-412.5-192.3-771.9-5.1c-329,172.1-493.5,217.7-787.1,217.7c-243,2.5-435.3-32.9-620-111.4l-101.2-43l162-27.8c212.6-38,412.5-134.1,792.1-379.6c417.6-270.8,561.8-346.7,739-397.3c237.9-68.3,367-40.5,792.1,179.7c199.9,103.8,397.3,187.3,435.3,187.3c106.3,0,245.5-55.7,498.6-197.4c475.8-268.3,625.1-268.3,1166.7,10.1c237.9,121.5,394.8,187.3,445.4,184.8c98.7,0,220.2-50.6,498.6-205c470.7-258.1,612.4-255.6,1151.5,20.2c240.4,121.5,399.9,187.3,455.5,187.3c53.1,0,220.2-68.3,470.7-194.9c382.2-194.9,387.2-197.4,577-194.9c273.3,0,356.8,50.6,738.9,440.4c346.7,359.4,442.9,420.1,713.7,453c149.3,17.7,154.4,20.2,86.1,48.1c-126.5,53.2-412.5,88.6-561.8,68.3c-108.8-12.7-237.9-65.8-511.2-205C8494.4-4059.3,8357.8-4115,8292-4115c-68.3,0-202.5,55.7-480.8,194.9c-377.1,192.3-389.7,194.9-574.5,194.9s-194.9-2.5-579.5-197.4c-478.3-245.5-463.1-245.5-969.3,15.2c-351.8,179.7-364.4,182.2-549.2,182.2c-187.3,0-197.4-2.5-577-194.9c-265.7-134.1-415-197.4-475.8-194.9c-60.7,0-212.6,60.8-468.2,189.8C3177.4-3705,3053.4-3677.1,2820.5-3758.1z"/></g></g>
</svg>